<svg width="94" height="61" viewBox="0 0 94 61" fill="none" xmlns="http://www.w3.org/2000/svg">
<g clip-path="url(#clip0_101_2)">
<path d="M2.6625 51.12L1.32457 52.6066L1.32457 52.6066L2.6625 51.12ZM1.7025 46.68L-0.173997 45.9881L-0.211496 46.0898L-0.237785 46.1949L1.7025 46.68ZM16.7025 6L14.8531 5.2385L14.8389 5.27303L14.826 5.30807L16.7025 6ZM26.4225 2.88L25.341 4.56235L25.367 4.57907L25.3935 4.59498L26.4225 2.88ZM29.0625 6L30.9243 5.26954L30.9182 5.25397L30.9119 5.2385L29.0625 6ZM45.0225 46.68L46.9628 46.1949L46.9315 46.0697L46.8843 45.9495L45.0225 46.68ZM44.0625 51.12L45.4004 52.6066L45.4004 52.6066L44.0625 51.12ZM39.0225 51.6L39.9169 49.8111L39.8763 49.7908L39.8348 49.7724L39.0225 51.6ZM37.3425 49.92L35.4698 50.6222L35.5067 50.7205L35.5536 50.8144L37.3425 49.92ZM33.3825 39.36L31.4097 39.6888L31.4416 39.8804L31.5098 40.0622L33.3825 39.36ZM12.9825 39.36L14.8756 40.0054L14.8799 39.9925L12.9825 39.36ZM9.3825 49.92L11.1714 50.8144L11.2319 50.6934L11.2755 50.5653L9.3825 49.92ZM7.5825 51.6L6.83972 49.743L6.72202 49.7901L6.61121 49.8517L7.5825 51.6ZM29.5425 30.96L27.9808 29.7106L27.9612 29.735L27.9425 29.76L29.5425 30.96ZM29.7825 29.52L31.7055 28.9706L31.6894 28.9141L31.67 28.8587L29.7825 29.52ZM24.0225 13.08L22.1068 13.6547L22.1199 13.6983L22.135 13.7413L24.0225 13.08ZM21.7425 13.08L23.644 13.7L23.6513 13.6775L23.6582 13.6547L21.7425 13.08ZM16.3425 29.64L18.2399 30.2725L18.244 30.26L16.3425 29.64ZM16.4625 30.96L14.7475 31.989L14.8742 32.2001L15.0483 32.3742L16.4625 30.96ZM5.4225 50.2C4.89522 50.2 4.44727 50.0356 4.00043 49.6334L1.32457 52.6066C2.47773 53.6444 3.86978 54.2 5.4225 54.2L5.4225 50.2ZM4.00043 49.6334C3.67293 49.3387 3.4625 48.9456 3.4625 48.24H-0.5375C-0.5375 49.9344 0.0520663 51.4613 1.32457 52.6066L4.00043 49.6334ZM3.4625 48.24C3.4625 48.0746 3.50039 47.7347 3.64279 47.1651L-0.237785 46.1949C-0.415387 46.9053 -0.5375 47.6054 -0.5375 48.24H3.4625ZM3.579 47.3719L18.579 6.69192L14.826 5.30807L-0.173997 45.9881L3.579 47.3719ZM18.5519 6.7615C18.9731 5.73838 19.5639 5.03813 20.304 4.56235L18.141 1.19764C16.6411 2.16187 15.5519 3.54161 14.8531 5.2385L18.5519 6.7615ZM20.304 4.56235C21.1151 4.04095 21.9419 3.8 22.8225 3.8V-0.200003C21.1431 -0.200003 19.5699 0.279043 18.141 1.19764L20.304 4.56235ZM22.8225 3.8C23.7031 3.8 24.5299 4.04095 25.341 4.56235L27.504 1.19764C26.0751 0.279043 24.5019 -0.200003 22.8225 -0.200003V3.8ZM25.3935 4.59498C26.205 5.0819 26.808 5.77763 27.2131 6.76149L30.9119 5.2385C30.197 3.50237 29.04 2.1181 27.4515 1.16501L25.3935 4.59498ZM27.2007 6.73045L43.1607 47.4105L46.8843 45.9495L30.9243 5.26954L27.2007 6.73045ZM43.0822 47.1651C43.2246 47.7347 43.2625 48.0746 43.2625 48.24H47.2625C47.2625 47.6054 47.1404 46.9053 46.9628 46.1949L43.0822 47.1651ZM43.2625 48.24C43.2625 48.9456 43.0521 49.3387 42.7246 49.6334L45.4004 52.6066C46.6729 51.4613 47.2625 49.9344 47.2625 48.24H43.2625ZM42.7246 49.6334C42.2777 50.0356 41.8298 50.2 41.3025 50.2V54.2C42.8552 54.2 44.2473 53.6444 45.4004 52.6066L42.7246 49.6334ZM41.3025 50.2C40.9591 50.2 40.5051 50.1052 39.9169 49.8111L38.1281 53.3889C39.1399 53.8948 40.2059 54.2 41.3025 54.2V50.2ZM39.8348 49.7724C39.5956 49.6661 39.3536 49.47 39.1314 49.0256L35.5536 50.8144C36.1314 51.97 37.0094 52.8939 38.2102 53.4276L39.8348 49.7724ZM39.2152 49.2178L35.2552 38.6578L31.5098 40.0622L35.4698 50.6222L39.2152 49.2178ZM35.3553 39.0312C35.2501 38.4001 34.9395 37.7127 34.2825 37.22C33.662 36.7546 32.9663 36.64 32.4225 36.64V40.64C32.4216 40.64 32.4077 40.64 32.383 40.637C32.3581 40.634 32.3199 40.6278 32.2713 40.6145C32.1717 40.5874 32.0306 40.531 31.8825 40.42C31.5455 40.1673 31.4349 39.8399 31.4097 39.6888L35.3553 39.0312ZM32.4225 36.64H14.0625L14.0625 40.64H32.4225V36.64ZM14.0625 36.64C13.5027 36.64 12.8558 36.7607 12.2631 37.1559C11.6527 37.5629 11.281 38.14 11.0851 38.7275L14.8799 39.9925C14.844 40.1 14.7323 40.3171 14.4819 40.4841C14.3695 40.559 14.2639 40.5996 14.1848 40.6202C14.1089 40.6401 14.0635 40.64 14.0625 40.64L14.0625 36.64ZM11.0895 38.7147L7.48948 49.2747L11.2755 50.5653L14.8755 40.0053L11.0895 38.7147ZM7.59365 49.0256C7.40356 49.4057 7.16629 49.6124 6.83972 49.743L8.32528 53.457C9.59871 52.9476 10.5614 52.0343 11.1714 50.8144L7.59365 49.0256ZM6.61121 49.8517C6.14503 50.1107 5.7563 50.2 5.4225 50.2L5.4225 54.2C6.5287 54.2 7.57997 53.8893 8.55379 53.3483L6.61121 49.8517ZM17.6625 33.44H28.4625V29.44H17.6625V33.44ZM28.4625 33.44C29.4305 33.44 30.4473 33.087 31.1425 32.16L27.9425 29.76C28.0239 29.6514 28.1434 29.5532 28.2802 29.4924C28.4054 29.4367 28.4824 29.44 28.4625 29.44V33.44ZM31.1042 32.2094C31.8888 31.2286 32.0153 30.0548 31.7055 28.9706L27.8595 30.0694C27.8737 30.1195 27.8522 30.076 27.8697 29.9712C27.8782 29.9202 27.894 29.8674 27.9168 29.8174C27.9393 29.7679 27.9635 29.7322 27.9808 29.7106L31.1042 32.2094ZM31.67 28.8587L25.91 12.4187L22.135 13.7413L27.895 30.1813L31.67 28.8587ZM25.9382 12.5053C25.7754 11.9629 25.5158 11.3495 25.0591 10.8421C24.5509 10.2774 23.8216 9.88 22.9425 9.88V13.88C22.7748 13.88 22.5924 13.8428 22.4201 13.7607C22.2532 13.6812 22.1447 13.5832 22.0859 13.5179C21.9892 13.4105 22.0296 13.3971 22.1068 13.6547L25.9382 12.5053ZM22.9425 9.88C22.126 9.88 21.3791 10.195 20.8083 10.7658C20.2891 11.285 20 11.9282 19.8268 12.5053L23.6582 13.6547C23.725 13.4318 23.7559 13.475 23.6367 13.5942C23.5683 13.6626 23.4633 13.7422 23.3217 13.8012C23.1797 13.8603 23.046 13.88 22.9425 13.88V9.88ZM19.841 12.46L14.441 29.02L18.244 30.26L23.644 13.7L19.841 12.46ZM14.4451 29.0075C14.1182 29.9884 14.1795 31.0423 14.7475 31.989L18.1775 29.931C18.2035 29.9744 18.2355 30.0524 18.2443 30.1489C18.2526 30.2408 18.2345 30.2885 18.2399 30.2725L14.4451 29.0075ZM15.0483 32.3742C15.7679 33.0938 16.6878 33.44 17.6625 33.44V29.44C17.6479 29.44 17.6835 29.4383 17.7453 29.463C17.8094 29.4887 17.855 29.5241 17.8767 29.5458L15.0483 32.3742ZM54.4153 51.12L55.6818 49.5721L55.6377 49.536L55.5917 49.5025L54.4153 51.12ZM54.4153 3.36L55.5917 4.97747L55.5917 4.97747L54.4153 3.36ZM60.1753 3.36L58.9259 4.92173L58.9618 4.95044L58.999 4.97747L60.1753 3.36ZM64.7353 20.28L63.3002 18.887L63.2474 18.9414L63.1989 18.9996L64.7353 20.28ZM80.5753 3.96L79.1611 2.54579L79.1505 2.55634L79.1402 2.56705L80.5753 3.96ZM86.8153 3.6L85.47 5.07988L85.47 5.07988L86.8153 3.6ZM87.0553 9.12L88.4592 10.5445L88.4644 10.5394L88.4695 10.5342L87.0553 9.12ZM70.4953 25.44L69.0915 24.0155L67.7374 25.3499L69.0015 26.7699L70.4953 25.44ZM88.0153 45.12L89.5632 43.8535L89.5368 43.8213L89.5091 43.7901L88.0153 45.12ZM87.6553 50.88L86.2411 49.4658L86.2411 49.4658L87.6553 50.88ZM81.5353 50.64L83.0621 49.3481L83.0573 49.3425L83.0525 49.3369L81.5353 50.64ZM64.7353 31.08L66.2525 29.7769L64.8467 28.1402L63.3211 29.6658L64.7353 31.08ZM63.0553 32.76L64.4695 34.1742L64.4695 34.1742L63.0553 32.76ZM60.1753 51.12L58.999 49.5025L58.9148 49.5638L58.8374 49.6334L60.1753 51.12ZM57.2953 50.2C56.761 50.2 56.2401 50.0289 55.6818 49.5721L53.1488 52.6679C54.3505 53.6511 55.7496 54.2 57.2953 54.2V50.2ZM55.5917 49.5025C55.3249 49.3085 55.0953 49.0085 55.0953 48.24H51.0953C51.0953 50.0315 51.7457 51.6515 53.239 52.7375L55.5917 49.5025ZM55.0953 48.24V6.36H51.0953V48.24H55.0953ZM55.0953 6.36C55.0953 5.46153 55.3582 5.14725 55.5917 4.97747L53.239 1.74253C51.7124 2.85275 51.0953 4.53847 51.0953 6.36H55.0953ZM55.5917 4.97747C56.1467 4.57382 56.6984 4.4 57.2953 4.4V0.399996C55.8122 0.399996 54.4439 0.866177 53.239 1.74253L55.5917 4.97747ZM57.2953 4.4C58.0063 4.4 58.5142 4.59239 58.9259 4.92173L61.4247 1.79826C60.2364 0.847599 58.8243 0.399996 57.2953 0.399996V4.4ZM58.999 4.97747C59.2324 5.14725 59.4953 5.46153 59.4953 6.36H63.4953C63.4953 4.53847 62.8782 2.85275 61.3517 1.74253L58.999 4.97747ZM59.4953 6.36V18.84H63.4953V6.36H59.4953ZM59.4953 18.84C59.4953 19.8681 59.5841 20.8793 59.8927 21.7022C60.0519 22.127 60.3157 22.6273 60.7741 23.0348C61.2738 23.479 61.9036 23.72 62.5753 23.72V19.72C62.887 19.72 63.2018 19.841 63.4315 20.0452C63.62 20.2127 63.6587 20.353 63.638 20.2978C63.6204 20.2508 63.5803 20.1153 63.5474 19.8519C63.5153 19.5956 63.4953 19.2618 63.4953 18.84H59.4953ZM62.5753 23.72C64.1783 23.72 65.4186 22.5841 66.2718 21.5604L63.1989 18.9996C62.8725 19.3913 62.6322 19.5984 62.4859 19.6959C62.3416 19.7921 62.3838 19.72 62.5753 19.72V23.72ZM66.1705 21.6729L82.0105 5.35295L79.1402 2.56705L63.3002 18.887L66.1705 21.6729ZM81.9895 5.37421C82.8115 4.5522 83.3728 4.4 83.6953 4.4V0.399996C81.9378 0.399996 80.4191 1.28779 79.1611 2.54579L81.9895 5.37421ZM83.6953 4.4C84.4028 4.4 84.9618 4.61788 85.47 5.07988L88.1607 2.12012C86.9089 0.982114 85.3879 0.399996 83.6953 0.399996V4.4ZM85.47 5.07988C85.9287 5.49695 86.1353 5.95769 86.1353 6.6H90.1353C90.1353 4.84231 89.4619 3.30304 88.1607 2.12012L85.47 5.07988ZM86.1353 6.6C86.1353 6.99489 86.0113 7.33561 85.6411 7.70579L88.4695 10.5342C89.5393 9.46439 90.1353 8.12511 90.1353 6.6H86.1353ZM85.6515 7.6955L69.0915 24.0155L71.8992 26.8645L88.4592 10.5445L85.6515 7.6955ZM69.0015 26.7699L86.5215 46.4499L89.5091 43.7901L71.9891 24.1101L69.0015 26.7699ZM86.4674 46.3865C87.0158 47.0568 87.0953 47.4619 87.0953 47.64H91.0953C91.0953 46.2181 90.4548 44.9432 89.5632 43.8535L86.4674 46.3865ZM87.0953 47.64C87.0953 48.2382 86.8797 48.8272 86.2411 49.4658L89.0695 52.2942C90.3509 51.0128 91.0953 49.4418 91.0953 47.64H87.0953ZM86.2411 49.4658C85.6905 50.0164 85.1836 50.2 84.6553 50.2V54.2C86.367 54.2 87.8601 53.5036 89.0695 52.2942L86.2411 49.4658ZM84.6553 50.2C84.1272 50.2 83.6196 50.007 83.0621 49.3481L80.0085 51.9319C81.211 53.353 82.7834 54.2 84.6553 54.2V50.2ZM83.0525 49.3369L66.2525 29.7769L63.2181 32.3831L80.0181 51.9431L83.0525 49.3369ZM63.3211 29.6658L61.6411 31.3458L64.4695 34.1742L66.1495 32.4942L63.3211 29.6658ZM61.6411 31.3458C60.235 32.7519 59.4953 34.497 59.4953 36.48H63.4953C63.4953 35.583 63.7956 34.8481 64.4695 34.1742L61.6411 31.3458ZM59.4953 36.48V48.24H63.4953V36.48H59.4953ZM59.4953 48.24C59.4953 49.0085 59.2657 49.3085 58.999 49.5025L61.3517 52.7375C62.8449 51.6515 63.4953 50.0315 63.4953 48.24H59.4953ZM58.8374 49.6334C58.4207 50.0084 57.9433 50.2 57.2953 50.2V54.2C58.8874 54.2 60.3299 53.6716 61.5132 52.6066L58.8374 49.6334Z" fill="#00C2FF"/>
</g>
<defs>
<clipPath id="clip0_101_2">
<rect width="94" height="61" fill="white"/>
</clipPath>
</defs>
</svg>
